<?xml version="1.0" standalone="no"?>
<!DOCTYPE svg PUBLIC "-//W3C//DTD SVG 20010904//EN"
 "http://www.w3.org/TR/2001/REC-SVG-20010904/DTD/svg10.dtd">
<svg version="1.0" xmlns="http://www.w3.org/2000/svg"
 width="2rem" height="2rem" viewBox="0 0 512.000000 512.000000"
 preserveAspectRatio="xMidYMid meet">

<g transform="translate(0.000000,512.000000) scale(0.100000,-0.100000)"
fill="#000000" stroke="none">
<path d="M2060 5105 c-227 -36 -442 -147 -610 -315 -175 -175 -285 -397 -320
-645 -8 -52 -10 -223 -8 -495 l4 -415 26 -73 c68 -188 209 -335 380 -397 l63
-23 3 -68 c4 -88 -10 -135 -52 -171 -23 -21 -193 -94 -562 -242 -291 -116
-558 -228 -593 -248 -141 -80 -282 -249 -340 -408 -46 -128 -53 -204 -49 -565
l3 -325 27 -51 c40 -76 70 -107 140 -145 l63 -34 1303 -3 1302 -2 78 -81 c390
-409 994 -514 1497 -261 234 117 453 337 573 577 90 179 126 343 126 565 0
183 -14 271 -66 420 -110 311 -347 579 -643 728 -177 88 -343 126 -560 127
-223 0 -385 -37 -571 -130 l-83 -42 -116 48 c-169 68 -195 100 -195 232 l0 73
81 33 c147 60 265 172 334 316 60 128 65 169 65 602 0 213 -5 420 -10 458 -52
366 -269 676 -588 843 -223 116 -457 155 -702 117z m370 -328 c152 -42 271
-109 374 -213 71 -71 147 -184 176 -262 55 -146 55 -147 55 -602 l0 -425 -36
-65 c-40 -72 -105 -129 -172 -151 -116 -36 -187 -92 -234 -182 -24 -46 -28
-66 -31 -171 -2 -68 1 -144 8 -180 28 -146 125 -274 256 -337 38 -18 70 -34
72 -35 2 -1 -23 -36 -56 -77 -263 -332 -346 -752 -228 -1157 13 -47 28 -93 31
-103 7 -16 -52 -17 -1159 -17 l-1166 0 0 293 c0 231 3 305 15 352 30 114 106
220 200 281 28 17 296 130 595 250 602 241 626 254 705 369 66 97 80 155 80
330 0 145 -1 152 -28 203 -36 69 -92 122 -158 151 -177 76 -206 97 -257 195
l-27 51 0 425 c0 366 2 433 17 485 29 106 58 172 108 249 118 180 303 306 520
352 80 17 262 12 340 -9z m1645 -2567 c76 -20 257 -101 300 -134 19 -14 -9
-44 -645 -681 -366 -366 -669 -664 -675 -662 -20 6 -125 233 -147 317 -29 110
-32 336 -5 444 45 179 128 327 257 457 147 150 309 236 513 275 102 19 299 12
402 -16z m617 -501 c82 -164 103 -248 102 -429 0 -156 -12 -226 -60 -349 -96
-242 -303 -449 -545 -545 -123 -48 -193 -60 -349 -60 -120 -1 -160 3 -230 22
-80 22 -261 102 -305 136 -19 14 9 44 645 681 366 366 669 664 675 662 5 -2
36 -55 67 -118z"/>
</g>
</svg>
